<svg width="280" height="122" viewBox="0 0 280 122" fill="none" xmlns="http://www.w3.org/2000/svg">
    <path
        d="M14.3338 122C9.75375 122 6.36375 120.91 4.16375 118.73C1.98375 116.53 0.89375 113.14 0.89375 108.56V94.7C0.89375 90.08 1.99375 86.69 4.19375 84.53C6.39375 82.35 9.77375 81.28 14.3338 81.32H21.5338C26.1338 81.32 29.5238 82.41 31.7038 84.59C33.8838 86.77 34.9738 90.16 34.9738 94.76V108.56C34.9738 113.14 33.8838 116.53 31.7038 118.73C29.5238 120.91 26.1338 122 21.5338 122H14.3338ZM14.3338 116.96H21.5338C23.6738 116.96 25.3538 116.71 26.5738 116.21C27.7938 115.69 28.6538 114.82 29.1537 113.6C29.6738 112.38 29.9338 110.7 29.9338 108.56V94.76C29.9338 92.64 29.6738 90.97 29.1537 89.75C28.6538 88.53 27.7938 87.66 26.5738 87.14C25.3538 86.62 23.6738 86.36 21.5338 86.36H14.3338C12.2138 86.34 10.5438 86.58 9.32375 87.08C8.10375 87.58 7.23375 88.44 6.71375 89.66C6.19375 90.88 5.93375 92.56 5.93375 94.7V108.56C5.93375 110.7 6.18375 112.38 6.68375 113.6C7.20375 114.82 8.07375 115.69 9.29375 116.21C10.5138 116.71 12.1938 116.96 14.3338 116.96ZM57.9861 122C53.4061 122 50.0161 120.91 47.8161 118.73C45.6361 116.53 44.5461 113.14 44.5461 108.56V94.76C44.5461 90.14 45.6361 86.74 47.8161 84.56C49.9961 82.36 53.3661 81.28 57.9261 81.32H65.1861C68.9461 81.32 71.8161 82.1 73.7961 83.66C75.7761 85.2 76.9261 87.64 77.2461 90.98C77.3661 91.82 77.2061 92.46 76.7661 92.9C76.3261 93.34 75.6861 93.56 74.8461 93.56C73.3261 93.56 72.4461 92.72 72.2061 91.04C72.0061 89.2 71.3661 87.96 70.2861 87.32C69.2261 86.68 67.5261 86.36 65.1861 86.36H57.9261C55.8061 86.34 54.1361 86.58 52.9161 87.08C51.7161 87.58 50.8561 88.45 50.3361 89.69C49.8361 90.91 49.5861 92.6 49.5861 94.76V108.56C49.5861 110.7 49.8361 112.38 50.3361 113.6C50.8561 114.82 51.7261 115.69 52.9461 116.21C54.1661 116.71 55.8461 116.96 57.9861 116.96H65.1861C67.5261 116.96 69.2261 116.64 70.2861 116C71.3661 115.34 72.0061 114.1 72.2061 112.28C72.4461 110.6 73.3261 109.76 74.8461 109.76C75.6861 109.76 76.3261 109.98 76.7661 110.42C77.2061 110.86 77.3661 111.5 77.2461 112.34C76.9261 115.7 75.7761 118.15 73.7961 119.69C71.8161 121.23 68.9461 122 65.1861 122H57.9861ZM99.9434 122C99.1034 122 98.4734 121.79 98.0534 121.37C97.6334 120.95 97.4234 120.32 97.4234 119.48V86.42H85.7834C84.9434 86.42 84.3134 86.21 83.8934 85.79C83.4734 85.37 83.2634 84.74 83.2634 83.9C83.2634 83.06 83.4734 82.43 83.8934 82.01C84.3134 81.59 84.9434 81.38 85.7834 81.38H114.103C114.943 81.38 115.573 81.59 115.993 82.01C116.413 82.43 116.623 83.06 116.623 83.9C116.623 84.74 116.413 85.37 115.993 85.79C115.573 86.21 114.943 86.42 114.103 86.42H102.463V119.48C102.463 120.28 102.243 120.9 101.803 121.34C101.383 121.78 100.763 122 99.9434 122ZM134.217 122C129.637 122 126.247 120.91 124.047 118.73C121.867 116.53 120.777 113.14 120.777 108.56V94.7C120.777 90.08 121.877 86.69 124.077 84.53C126.277 82.35 129.657 81.28 134.217 81.32H141.417C146.017 81.32 149.407 82.41 151.587 84.59C153.767 86.77 154.857 90.16 154.857 94.76V108.56C154.857 113.14 153.767 116.53 151.587 118.73C149.407 120.91 146.017 122 141.417 122H134.217ZM134.217 116.96H141.417C143.557 116.96 145.237 116.71 146.457 116.21C147.677 115.69 148.537 114.82 149.037 113.6C149.557 112.38 149.817 110.7 149.817 108.56V94.76C149.817 92.64 149.557 90.97 149.037 89.75C148.537 88.53 147.677 87.66 146.457 87.14C145.237 86.62 143.557 86.36 141.417 86.36H134.217C132.097 86.34 130.427 86.58 129.207 87.08C127.987 87.58 127.117 88.44 126.597 89.66C126.077 90.88 125.817 92.56 125.817 94.7V108.56C125.817 110.7 126.067 112.38 126.567 113.6C127.087 114.82 127.957 115.69 129.177 116.21C130.397 116.71 132.077 116.96 134.217 116.96ZM168.389 122C166.709 122 165.869 121.16 165.869 119.48V83.84C165.869 82.16 166.709 81.32 168.389 81.32H182.429C186.089 81.32 188.889 82.3 190.829 84.26C192.789 86.2 193.769 89 193.769 92.66V94.46C193.769 98.12 192.789 100.93 190.829 102.89C188.889 104.83 186.089 105.8 182.429 105.8H170.909V119.48C170.909 121.16 170.069 122 168.389 122ZM170.909 100.76H182.429C184.709 100.76 186.329 100.28 187.289 99.32C188.249 98.36 188.729 96.74 188.729 94.46V92.66C188.729 90.4 188.249 88.79 187.289 87.83C186.329 86.85 184.709 86.36 182.429 86.36H170.909V100.76ZM215.806 122C211.226 122 207.836 120.91 205.636 118.73C203.456 116.53 202.366 113.14 202.366 108.56V83.84C202.366 83 202.576 82.37 202.996 81.95C203.416 81.53 204.046 81.32 204.886 81.32C205.726 81.32 206.356 81.53 206.776 81.95C207.196 82.37 207.406 83 207.406 83.84V108.56C207.406 110.7 207.656 112.38 208.156 113.6C208.676 114.82 209.546 115.69 210.766 116.21C211.986 116.71 213.666 116.96 215.806 116.96H223.006C225.146 116.96 226.826 116.71 228.046 116.21C229.266 115.69 230.126 114.82 230.626 113.6C231.146 112.38 231.406 110.7 231.406 108.56V83.84C231.406 83 231.616 82.37 232.036 81.95C232.456 81.53 233.086 81.32 233.926 81.32C234.766 81.32 235.396 81.53 235.816 81.95C236.236 82.37 236.446 83 236.446 83.84V108.56C236.446 113.14 235.356 116.53 233.176 118.73C230.996 120.91 227.606 122 223.006 122H215.806ZM258.773 122C255.353 122 252.683 121.31 250.763 119.93C248.863 118.55 247.673 116.42 247.193 113.54C247.113 112.66 247.293 112 247.733 111.56C248.173 111.12 248.813 110.9 249.653 110.9C250.493 110.9 251.103 111.1 251.483 111.5C251.883 111.9 252.153 112.52 252.293 113.36C252.593 114.74 253.233 115.69 254.213 116.21C255.213 116.71 256.733 116.96 258.773 116.96H267.413C269.993 116.96 271.743 116.5 272.663 115.58C273.603 114.64 274.073 112.9 274.073 110.36C274.073 107.78 273.593 106.02 272.633 105.08C271.673 104.12 269.933 103.64 267.413 103.64H259.973C256.193 103.64 253.383 102.72 251.543 100.88C249.723 99.02 248.813 96.2 248.813 92.42C248.813 88.66 249.713 85.87 251.513 84.05C253.333 82.23 256.133 81.32 259.913 81.32H267.053C270.233 81.32 272.723 81.97 274.523 83.27C276.343 84.57 277.493 86.56 277.973 89.24C278.093 90.1 277.933 90.76 277.493 91.22C277.053 91.66 276.393 91.88 275.513 91.88C274.713 91.88 274.113 91.67 273.713 91.25C273.313 90.83 273.053 90.22 272.933 89.42C272.613 88.24 272.003 87.44 271.103 87.02C270.203 86.58 268.853 86.36 267.053 86.36H259.913C257.513 86.36 255.903 86.79 255.083 87.65C254.263 88.49 253.853 90.08 253.853 92.42C253.853 94.78 254.273 96.4 255.113 97.28C255.953 98.16 257.573 98.6 259.973 98.6H267.413C271.353 98.6 274.283 99.56 276.203 101.48C278.143 103.4 279.113 106.36 279.113 110.36C279.113 114.34 278.153 117.28 276.233 119.18C274.313 121.06 271.373 122 267.413 122H258.773Z"
        fill="#BBF246" />
    <path
        d="M154.705 35.5083C158.848 29.9713 161.507 22.3343 161.501 19.2483C161.513 19.1483 161.522 19.0513 161.526 18.9692C161.643 16.2882 155.4 25.7632 149.01 30.8482C149.881 27.7843 150.366 24.1213 150.366 19.7782C150.366 -6.59275 117.636 -6.59275 117.636 19.7782C117.636 24.1222 118.121 27.7843 118.993 30.8482C112.603 25.7642 106.36 16.2882 106.476 18.9692C106.479 19.0513 106.49 19.1493 106.501 19.2483C106.495 22.3343 109.155 29.9713 113.297 35.5083C107.584 35.5532 102.841 35.1423 104.251 36.3023C104.324 36.3623 104.414 36.4282 104.51 36.4953C106.335 38.1012 112.321 40.7243 118.45 41.8143C118.324 41.9972 118.196 42.1763 118.072 42.3703C113.896 48.8323 104.435 51.6803 107.718 52.8323C108.635 53.2303 109.994 53.4443 111.595 53.4443C114.418 53.4443 117.987 52.7733 121.187 51.2753C118.622 55.9313 115.613 59.2513 118.118 59.8973C118.338 59.9543 118.587 59.9803 118.858 59.9843C118.985 59.9943 119.115 59.9993 119.248 59.9993C123.74 59.9993 131.453 54.9502 134.002 48.2873C136.551 54.9502 144.263 59.9993 148.755 59.9993C148.889 59.9993 149.018 59.9943 149.146 59.9843C149.416 59.9803 149.666 59.9543 149.885 59.8973C152.39 59.2513 149.381 55.9313 146.816 51.2753C150.016 52.7733 153.585 53.4443 156.408 53.4443C158.009 53.4443 159.368 53.2303 160.285 52.8323C163.568 51.6803 154.107 48.8323 149.931 42.3703C149.806 42.1772 149.679 41.9972 149.552 41.8143C155.681 40.7243 161.667 38.1012 163.492 36.4953C163.589 36.4282 163.679 36.3613 163.751 36.3023C165.161 35.1423 160.418 35.5532 154.705 35.5083ZM159.553 23.8903C158.386 27.4973 156.215 32.0223 153.47 35.4903C152.211 35.4679 150.954 35.4082 149.699 35.3113C153.374 32.9133 156.921 27.8383 159.553 23.8903ZM142.299 25.8953C143.094 25.8953 143.857 26.2113 144.42 26.7739C144.983 27.3365 145.299 28.0996 145.299 28.8953C145.299 29.6909 144.983 30.454 144.42 31.0166C143.857 31.5792 143.094 31.8953 142.299 31.8953C141.503 31.8953 140.74 31.5792 140.177 31.0166C139.615 30.454 139.299 29.6909 139.299 28.8953C139.299 28.0996 139.615 27.3365 140.177 26.7739C140.74 26.2113 141.503 25.8953 142.299 25.8953ZM130.554 35.3763C131.14 35.6233 132.231 36.0833 134.005 36.0833C135.776 36.0833 136.866 35.6233 137.451 35.3763C137.716 35.2653 137.879 35.1963 138.043 35.1963C138.266 35.1963 138.492 35.3373 138.492 35.6023C138.492 36.5363 136.352 37.3853 134.005 37.3853C131.654 37.3853 129.513 36.5353 129.513 35.6023C129.513 35.4993 129.545 35.4123 129.612 35.3383C129.658 35.2915 129.713 35.2546 129.773 35.23C129.834 35.2054 129.899 35.1936 129.965 35.1953C130.129 35.1963 130.289 35.2653 130.554 35.3763ZM126.916 25.8953C127.711 25.8953 128.474 26.2113 129.037 26.7739C129.6 27.3365 129.916 28.0996 129.916 28.8953C129.916 29.6909 129.6 30.454 129.037 31.0166C128.474 31.5792 127.711 31.8953 126.916 31.8953C126.12 31.8953 125.357 31.5792 124.794 31.0166C124.232 30.454 123.916 29.6909 123.916 28.8953C123.916 28.0996 124.232 27.3365 124.794 26.7739C125.357 26.2113 126.12 25.8953 126.916 25.8953ZM108.451 23.8903C111.082 27.8383 114.63 32.9133 118.305 35.3113C117.054 35.4113 115.781 35.4643 114.534 35.4903C111.789 32.0213 109.617 27.4973 108.451 23.8903ZM109.617 38.1793C112.54 38.5993 115.892 39.0203 119.024 39.0203C119.705 39.0203 120.341 38.9963 120.949 38.9563C120.281 39.5503 119.669 40.2037 119.12 40.9083C115.71 40.3493 112.281 39.2893 109.617 38.1793ZM111.597 52.4443C110.838 52.4443 110.14 52.3933 109.534 52.2973C110.044 52.0464 110.559 51.803 111.077 51.5673C113.923 50.2523 117.821 48.4523 120.576 45.3793C122.055 43.7303 123.635 42.5433 125.144 41.9003C124.491 42.9663 123.923 44.2653 123.5 45.8173C123.127 47.1883 122.591 48.5042 121.985 49.7443C118.576 51.6533 114.504 52.4443 111.597 52.4443ZM148.073 58.9553C144.069 58.4723 137.255 53.9903 134.936 47.9303L134.002 45.4883L133.067 47.9293C130.749 53.9903 123.934 58.4713 119.931 58.9543C120.425 58.2123 121.585 57.0373 122.489 56.1213C124.514 54.0693 127.035 51.5173 128.729 48.3683C130.12 45.7873 131.924 43.9643 133.811 43.2323L133.827 43.2263C133.87 43.2233 134.134 43.2233 134.177 43.2263L134.193 43.2323C136.08 43.9633 137.884 45.7873 139.275 48.3673C140.969 51.5163 143.49 54.0693 145.515 56.1213C146.419 57.0383 147.579 58.2133 148.073 58.9553ZM156.928 51.5663C157.43 51.7973 157.988 52.0553 158.471 52.2963C157.788 52.399 157.098 52.4481 156.408 52.4433C153.5 52.4433 149.429 51.6523 146.019 49.7433C145.414 48.5033 144.877 47.1873 144.504 45.8163C144.081 44.2643 143.514 42.9653 142.86 41.8993C144.37 42.5423 145.949 43.7283 147.428 45.3783C150.185 48.4513 154.082 50.2513 156.928 51.5663ZM148.884 40.9073C148.335 40.2027 147.723 39.5493 147.056 38.9553C147.663 38.9953 148.3 39.0193 148.981 39.0193C152.113 39.0193 155.464 38.5983 158.388 38.1783C155.724 39.2893 152.294 40.3493 148.884 40.9073Z"
        fill="#BBF246" />
</svg>
    